<svg width="128" height="128" viewBox="0 0 128 128" fill="none" xmlns="http://www.w3.org/2000/svg">
  <rect width="128" height="128" rx="32" fill="#16322D"/>
  <rect x="22" y="22" width="84" height="84" rx="22" fill="#F8F1E5"/>
  <path d="M37 41C37 36.5817 40.5817 33 45 33H83C87.4183 33 91 36.5817 91 41V71C91 75.4183 87.4183 79 83 79H58L45.5 92.5C43.6109 94.5413 40.25 93.2045 40.25 90.425V79H45C40.5817 79 37 75.4183 37 71V41Z" fill="url(#paint0_linear_600_1)"/>
  <path d="M47 49H80" stroke="#16322D" stroke-width="6" stroke-linecap="round"/>
  <path d="M47 61H72" stroke="#16322D" stroke-width="6" stroke-linecap="round"/>
  <path d="M47 73H64" stroke="#16322D" stroke-width="6" stroke-linecap="round"/>
  <path d="M82.5 83L92.5 93" stroke="#C26A1B" stroke-width="8" stroke-linecap="round"/>
  <circle cx="92" cy="93" r="9" fill="#F2B15E"/>
  <rect x="77" y="84" width="10" height="16" rx="5" fill="#C26A1B"/>
  <defs>
    <linearGradient id="paint0_linear_600_1" x1="37" y1="33" x2="91" y2="79" gradientUnits="userSpaceOnUse">
      <stop stop-color="#5FC4B8"/>
      <stop offset="1" stop-color="#1B8E82"/>
    </linearGradient>
  </defs>
</svg>
